<svg width="259pt" height="109pt" viewBox="0 0 259 109" xmlns="http://www.w3.org/2000/svg"><g fill="#fdbb30"><path d="M99.35 0h3.36c.31 1.41.26 2.79-.13 4.17h-3.35c.03-1.39.07-2.78.12-4.17zm.09 7.68c1.23 0 2.45.01 3.68.02v3.55c-1.24.06-2.48.11-3.72.16-.12-1.24-.22-2.48-.31-3.72l.35-.01zM88.82 11.4c1.22-.03 2.44-.08 3.67-.1-.01.8-.02 2.4-.02 3.2-.01.12-.02.36-.02.48-.87-.07-2.6-.23-3.47-.31l-.16-3.27zm-52.21 4.89c9.77-2.63 20.2-1.6 29.59 1.99 2.47 1.2 4.93 2.44 7.25 3.92l2.23 1.55-1.69.9c-2.53 1.74 1.85 2.41 2.85 3.09-.03.93-.06 1.86-.1 2.79-1.03-.02-2.06-.03-3.09-.04.38-2.35-1.57-4.7-3.99-3.27.05 1.74.1 3.49.16 5.23-.88-.03-2.63-.08-3.5-.11.01.66.04 1.98.06 2.64-7.19-4.41-15.97-6.56-24.32-4.78-8 1.51-15.26 6.26-19.99 12.86-5.62 7.55-7.06 17.7-4.8 26.72 3.11 11.5 13.11 20.8 24.85 22.93 10.51 2.18 21.93-1.57 29.31-9.31 5.54-5.69 8.61-13.56 8.84-21.46.14-6.63-2.11-13.12-5.58-18.71.46.01 1.38.05 1.84.06.53-1.21-.41-4.02 1.72-3.92.49-.09 1.48-.28 1.97-.37l.12-2.9c2.94.18 2.96-2.36 3.23-4.54 5.54 4.76 8.22 11.97 10.22 18.8 5 19.06-3.93 40.4-20.63 50.68-2.21 1.3-4.51 2.45-6.84 3.53-13.44 5.48-29.32 4.6-41.82-2.91C7.34 91.88-2.57 70.24 2.57 50.97c3.62-16.72 17.45-30.65 34.04-34.68z"/><path d="M73.41 35.63l2.96.16c.37 1.16.58 2.35.62 3.59-.9-.04-2.69-.11-3.59-.15 0-.9.01-2.7.01-3.6z"/></g><path d="M95.65 4.23l3.57-.09c.06.88.17 2.66.22 3.54l-.35.01-3.35.04c-.04 1.19-.08 2.39-.11 3.58-.79 0-2.36-.01-3.14-.01-1.23.02-2.45.07-3.67.1l.16 3.27.28 4.05c.62-.26 1.86-.79 2.47-1.06l.72-2.68c0-.12.01-.36.02-.48 1.27.13 2.55.26 3.82.4.02 1.09.04 2.18.07 3.27v.01c-1.13.1-2.18.41-3.17.93-.31.64-.93 1.91-1.24 2.55-1.18.02-2.36.04-3.54.08.14-1.15.27-2.29.4-3.43-1.12.08-2.23.18-3.35.27.16.83.46 2.48.62 3.31l.87-.89c.74.54 1.48 1.05 2.23 1.56-.03 1.96-.04 3.91-.05 5.87-2.27-.14-3.47.91-3.25 3.22l-2.31-.09c-.27 2.18-.29 4.72-3.23 4.54l-.12 2.9c-.49.09-1.48.28-1.97.37-2.13-.1-1.19 2.71-1.72 3.92-.46-.01-1.38-.05-1.84-.06-.31-.02-.94-.05-1.25-.07l-.03 3.99c-.72.01-2.15.04-2.87.05l.12 3.02c-3.96-.68-2.17 3.59-3.81 5.59-4.14 6.41-7.73 13.2-10.43 20.35-.72 1.54-1.16 3.52-2.84 4.33-2.96 1.03-7.15.36-8.27-3-3.49-9.09-8.07-17.89-14.78-25.06-1.53-1.84-4.2-4.5-1.88-6.81 1.93-1.16 4.09.18 5.84 1.05 6.32 3.46 10.57 9.42 15.28 14.67 3.25-7.54 7.31-14.7 11.53-21.73 3.51.57 2.19-3.96 5.1-4.29l-.02-.34c-.02-.66-.05-1.98-.06-2.64.87.03 2.62.08 3.5.11-.06-1.74-.11-3.49-.16-5.23 2.42-1.43 4.37.92 3.99 3.27 1.03.01 2.06.02 3.09.04.04-.93.07-1.86.1-2.79-1-.68-5.38-1.35-2.85-3.09l1.69-.9.92-2.13c1.89.09 3.78.02 5.67.01v-3.51c-1.21.17-2.42.32-3.64.44v-.39c0-.74-.01-2.24-.01-2.99 1.11.06 2.81-.77 3.31.71.35 1.97 1.65 2.73 3.63 2.63.03-2.4.04-4.8.04-7.2l3.13-.06c.17-1.21.35-2.41.53-3.61 2.13 0 4.26 0 6.39-.01V4.23M82.23 21.75c.06 1.14.14 2.27.22 3.41 1.02-.01 2.04-.01 3.06-.02.06-1.21.12-2.43.19-3.64-.87.06-2.61.19-3.47.25m-8.82 13.88c0 .9-.01 2.7-.01 3.6.9.04 2.69.11 3.59.15-.04-1.24-.25-2.43-.62-3.59l-2.96-.16zm30.36-5.93c2.47-.04 4.95-.05 7.42-.09 3.6 6.12 6.37 12.7 10.2 18.67.08-6.21 0-12.42.03-18.64 2.04.01 4.07.02 6.11.01.03 10.22.06 20.43-.02 30.65-2.21-.02-4.42-.03-6.63-.03-3.58-6.78-7.04-13.61-10.44-20.47-.86 6.83.58 13.84-.78 20.6-1.96-.1-3.93-.14-5.89-.18 0-10.18.01-20.35 0-30.52zm67.67 7.99c.37-2.12.77-4.22 1.16-6.33 1.85.02 3.69.04 5.54.08 0 2.1-.01 4.2-.01 6.3 1.5-.04 3-.07 4.5-.12.05 1.61.07 3.22.07 4.83-1.52-.03-3.05-.07-4.57-.1.12 4.2-.24 8.41.2 12.59.97 1.36 3.03.28 4.45.51.28 1.54.53 3.09.79 4.64-3.95.74-9.92 1.55-11.71-3.17-1.11-4.74-.24-9.74-.49-14.58-3.02-.05-6.65-.27-8.42 2.73-2.71 4.57-1.05 10.17-1.5 15.2h-6.71c.02-7.5.02-15.01 0-22.52.92-.04 2.77-.1 3.7-.14.68 1.47 1.29 2.98 1.9 4.48 1.22-1.03 2.09-2.43 3.48-3.27 2.22-1.57 5.07-1.02 7.62-1.13zm-33.02-.1c6.82-1.96 14.31 3.32 14.75 10.38.72 6.76-5.39 13.15-12.18 12.68-6.82-.08-12.6-7.01-11.19-13.75.85-4.37 4.29-8.18 8.62-9.31m-1.82 7.85c-2.85 3.37-.19 9.4 4.28 9.39 4.52.79 8.31-4.78 5.87-8.67-.88-2.05-3.08-2.73-4.99-3.42-1.88.54-4.04.89-5.16 2.7z"/><path d="M191.53 37.78c6.81-2.39 15.09 2.77 15.34 10.11 1.01 7.06-5.77 13.6-12.76 12.71-6.91-.49-12.25-7.88-10.34-14.61 1.08-3.75 4.07-6.92 7.76-8.21m3.09 5.21c-4.43.28-7.07 6.05-4.21 9.49 2.38 3.55 8.4 3.02 10.19-.84 2.5-3.94-1.62-9.28-5.98-8.65zm19.16-1.94c2.18-2.22 5.03-4.15 8.31-3.75 4.46-.1 7.28 4.58 7.09 8.65-.21 4.8.57 9.71-.53 14.42-2.06-.08-4.12-.09-6.18-.1-.3-5.38.38-10.83-.35-16.17-2.24-3.01-7.81-.88-7.28 2.87.15 4.15-.38 8.37.46 12.46-1.88 1.56-4.55.59-6.77.86.02-7.53-.02-15.07.02-22.61.95.01 2.85.01 3.8.02.48 1.11.95 2.23 1.43 3.35z"/><path d="M66.2 18.28c4.15.05 8.29.01 12.43-.11v.39c1.22-.12 2.43-.27 3.64-.44v3.51c-1.89.01-3.78.08-5.67-.01-1.19-.38-2.24-.19-3.15.58-2.32-1.48-4.78-2.72-7.25-3.92zm30.16-.11c36.21.24 72.42.03 108.63.1 7.71.12 15.65-.69 23.08 1.88 13.61 4.11 24.75 15.26 28.82 28.89.81 3.43 1.48 6.88 2.11 10.35v4.17c-1.12 6.9-2.61 13.93-6.39 19.93-7.44 12.73-21.76 21.11-36.55 21.1-49.91.01-99.83.05-149.74-.02 2.33-1.08 4.63-2.23 6.84-3.53 2.28.14 4.56.27 6.85.29 45.01-.05 90.02 0 135.02-.03 10.81-.01 21.55-4.5 29.02-12.33 8.94-9.14 13.12-22.78 10.4-35.33-3.32-17.89-20.24-31.94-38.44-31.96-41.35-.05-82.7-.01-124.06-.02.31-.64.93-1.91 1.24-2.55.99-.52 2.04-.83 3.17-.93v-.01z" fill="#c0bfbf"/><g fill="#fff"><path d="M85.46 18.58c1.12-.09 2.23-.19 3.35-.27-.13 1.14-.26 2.28-.4 3.43 1.18-.04 2.36-.06 3.54-.08 41.36.01 82.71-.03 124.06.02 18.2.02 35.12 14.07 38.44 31.96 2.72 12.55-1.46 26.19-10.4 35.33-7.47 7.83-18.21 12.32-29.02 12.33-45 .03-90.01-.02-135.02.03-2.29-.02-4.57-.15-6.85-.29 16.7-10.28 25.63-31.62 20.63-50.68-2-6.83-4.68-14.04-10.22-18.8l2.31.09c-.22-2.31.98-3.36 3.25-3.22.01-1.96.02-3.91.05-5.87-.75-.51-1.49-1.02-2.23-1.56l-.87.89c-.16-.83-.46-2.48-.62-3.31m18.31 11.12c.01 10.17 0 20.34 0 30.52 1.96.04 3.93.08 5.89.18 1.36-6.76-.08-13.77.78-20.6 3.4 6.86 6.86 13.69 10.44 20.47 2.21 0 4.42.01 6.63.03.08-10.22.05-20.43.02-30.65-2.04.01-4.07 0-6.11-.01-.03 6.22.05 12.43-.03 18.64-3.83-5.97-6.6-12.55-10.2-18.67-2.47.04-4.95.05-7.42.09m67.67 7.99c-2.55.11-5.4-.44-7.62 1.13-1.39.84-2.26 2.24-3.48 3.27-.61-1.5-1.22-3.01-1.9-4.48-.93.04-2.78.1-3.7.14.02 7.51.02 15.02 0 22.52h6.71c.45-5.03-1.21-10.63 1.5-15.2 1.77-3 5.4-2.78 8.42-2.73.25 4.84-.62 9.84.49 14.58 1.79 4.72 7.76 3.91 11.71 3.17-.26-1.55-.51-3.1-.79-4.64-1.42-.23-3.48.85-4.45-.51-.44-4.18-.08-8.39-.2-12.59 1.52.03 3.05.07 4.57.1 0-1.61-.02-3.22-.07-4.83-1.5.05-3 .08-4.5.12 0-2.1.01-4.2.01-6.3-1.85-.04-3.69-.06-5.54-.08-.39 2.11-.79 4.21-1.16 6.33m-33.02-.1c-4.33 1.13-7.77 4.94-8.62 9.31-1.41 6.74 4.37 13.67 11.19 13.75 6.79.47 12.9-5.92 12.18-12.68-.44-7.06-7.93-12.34-14.75-10.38m53.11.19c-3.69 1.29-6.68 4.46-7.76 8.21-1.91 6.73 3.43 14.12 10.34 14.61 6.99.89 13.77-5.65 12.76-12.71-.25-7.34-8.53-12.5-15.34-10.11m22.25 3.27c-.48-1.12-.95-2.24-1.43-3.35-.95-.01-2.85-.01-3.8-.02-.04 7.54 0 15.08-.02 22.61 2.22-.27 4.89.7 6.77-.86-.84-4.09-.31-8.31-.46-12.46-.53-3.75 5.04-5.88 7.28-2.87.73 5.34.05 10.79.35 16.17 2.06.01 4.12.02 6.18.1 1.1-4.71.32-9.62.53-14.42.19-4.07-2.63-8.75-7.09-8.65-3.28-.4-6.13 1.53-8.31 3.75m-45.39 28.62c-.2 4.78.21 9.58-.2 14.35-.31 3.64-6.7 3.55-6.71-.12-.36-4.76-.03-9.54-.17-14.3-1.13.14-3.54-.25-3.46 1.51.09 4.56-.41 9.21.47 13.72 1.08 6.41 12.17 6.16 13.05-.29.5-4.94.15-9.92.18-14.88-1.06 0-2.11.01-3.16.01m9.96-.01c-.13 6.51.03 13.02-.1 19.52 1.09-.12 3.5.69 3.27-1.21.12-2.45.03-4.91.08-7.36 6.22-.66 3.7 10.04 10.23 8.82-.93-2.94-2.56-5.6-3.61-8.49 2.55-2.08 4.66-5.48 2.58-8.66-2.91-3.85-8.33-2.26-12.45-2.62m37.02-.03c-.01 6.57-.32 13.16.16 19.72 4.03-.15 8.95.41 11.91-2.95 2.7-3.73 2.86-9.28.53-13.22-2.77-4.13-8.3-3.46-12.6-3.55m-110.58 1.14c-2.08 1.48-1.95 4.53-1.18 6.68 2.01 3.14 6.52 2.73 8.9 5.42.37 1.61-.17 2.78-1.61 3.51-2.69.83-5.2-.75-7.8-1.16-2.4 2.81 1.87 3.72 3.9 4.04 3.61.91 9.02-.78 8.73-5.27.53-4.82-5.04-5.92-8.4-7.41-1.75-.54-.95-2.71-.85-4.01 2.44-.34 4.87 0 7.3.16.3-.52.89-1.57 1.18-2.09-3.2-1.12-7.24-2.14-10.17.13m16.82-1.09c-.03 6.52-.06 13.05.02 19.57 3.9-.06 7.81.13 11.71-.08l.48-2.69c-2.91-.04-5.83-.02-8.73.06-.27-2.01-.34-4.05-.4-6.08 2.22-.5 5.81 1.09 7.05-1.41-1.11-2.63-4.8-.95-7-1.46l.03-5.09c2.66-.06 5.33.05 7.99-.1.13-.67.38-2.02.51-2.69-3.89-.01-7.77-.01-11.66-.03M140 73c-2.6 4.62-2.45 11.66 2.02 15.11 3.31 2.36 7.69 1.33 10.66-1.09-.44-.61-1.3-1.83-1.74-2.44-2.18 1.79-5.9 3.07-7.84.23-1.78-3.41-1.77-8.01.43-11.23 2-2.46 5.24-.62 7.58.17.23-.65.68-1.95.9-2.6-3.72-2.57-9.6-2.41-12.01 1.85m57.57-3.29c-.02 6.51-.02 13.01 0 19.52 3.92-.04 7.84.16 11.75-.06.12-.68.35-2.04.47-2.73-2.9 0-5.79.02-8.69.11-.34-2.07-.31-4.16-.05-6.23 2.16.03 4.33.05 6.49.07.93-4.29-4.13-2.33-6.59-2.69-.1-1.76-.06-3.53.07-5.3 2.81.05 5.62.06 8.43 0l-.44-2.6c-3.81-.27-7.63-.04-11.44-.09zM73.45 22.2c.91-.77 1.96-.96 3.15-.58l-.92 2.13-2.23-1.55z"/><path d="M82.23 21.75c.86-.06 2.6-.19 3.47-.25-.07 1.21-.13 2.43-.19 3.64-1.02.01-2.04.01-3.06.02-.08-1.14-.16-2.27-.22-3.41zM42.06 30.2c8.35-1.78 17.13.37 24.32 4.78l.02.34c-2.91.33-1.59 4.86-5.1 4.29-4.22 7.03-8.28 14.19-11.53 21.73-4.71-5.25-8.96-11.21-15.28-14.67-1.75-.87-3.91-2.21-5.84-1.05-2.32 2.31.35 4.97 1.88 6.81 6.71 7.17 11.29 15.97 14.78 25.06 1.12 3.36 5.31 4.03 8.27 3 1.68-.81 2.12-2.79 2.84-4.33 2.7-7.15 6.29-13.94 10.43-20.35 1.64-2-.15-6.27 3.81-5.59l-.12-3.02c.72-.01 2.15-.04 2.87-.05l.03-3.99c.31.02.94.05 1.25.07 3.47 5.59 5.72 12.08 5.58 18.71-.23 7.9-3.3 15.77-8.84 21.46-7.38 7.74-18.8 11.49-29.31 9.31-11.74-2.13-21.74-11.43-24.85-22.93-2.26-9.02-.82-19.17 4.8-26.72 4.73-6.6 11.99-11.35 19.99-12.86zm94.54 15.24c1.12-1.81 3.28-2.16 5.16-2.7 1.91.69 4.11 1.37 4.99 3.42 2.44 3.89-1.35 9.46-5.87 8.67-4.47.01-7.13-6.02-4.28-9.39zm58.02-2.45c4.36-.63 8.48 4.71 5.98 8.65-1.79 3.86-7.81 4.39-10.19.84-2.86-3.44-.22-9.21 4.21-9.49zm-13.13 29.49c2.46.07 6.18-.83 6.89 2.46.38 3.86-4.24 3.58-6.82 3.52-.02-2-.04-3.99-.07-5.98zm37.04-.18c2.35.21 5.45 0 6.69 2.51 1.05 2.75.92 5.94.17 8.76-.99 2.82-4.38 2.91-6.86 3.01-.01-4.76-.02-9.52 0-14.28z"/></g><path d="M243.65 18.31c2.48-.04 4.97.2 7.45-.07l1.03 3.18c.37-.8 1.1-2.39 1.46-3.18l1.73.12c-.15 2.29.57 4.81-.64 6.89-.23-1.21-.52-2.4-.87-3.58-.28.85-.83 2.56-1.11 3.41-.51-.84-1.51-2.51-2.02-3.35l-1.2 3.48c-.11-2.1-.05-4.21-.03-6.32-3.56.05-2.23 3.95-2.77 6.28-1.88-1.05-.73-3.53-1.07-5.24-.49-.4-1.47-1.21-1.96-1.62zm-75.26 51.36c1.05 0 2.1-.01 3.16-.01-.03 4.96.32 9.94-.18 14.88-.88 6.45-11.97 6.7-13.05.29-.88-4.51-.38-9.16-.47-13.72-.08-1.76 2.33-1.37 3.46-1.51.14 4.76-.19 9.54.17 14.3.01 3.67 6.4 3.76 6.71.12.41-4.77 0-9.57.2-14.35zm9.96-.01c4.12.36 9.54-1.23 12.45 2.62 2.08 3.18-.03 6.58-2.58 8.66 1.05 2.89 2.68 5.55 3.61 8.49-6.53 1.22-4.01-9.48-10.23-8.82-.05 2.45.04 4.91-.08 7.36.23 1.9-2.18 1.09-3.27 1.21.13-6.5-.03-13.01.1-19.52m3.14 2.82c.03 1.99.05 3.98.07 5.98 2.58.06 7.2.34 6.82-3.52-.71-3.29-4.43-2.39-6.89-2.46zm33.88-2.85c4.3.09 9.83-.58 12.6 3.55 2.33 3.94 2.17 9.49-.53 13.22-2.96 3.36-7.88 2.8-11.91 2.95-.48-6.56-.17-13.15-.16-19.72m3.16 2.67c-.02 4.76-.01 9.52 0 14.28 2.48-.1 5.87-.19 6.86-3.01.75-2.82.88-6.01-.17-8.76-1.24-2.51-4.34-2.3-6.69-2.51zm-113.74-1.53c2.93-2.27 6.97-1.25 10.17-.13-.29.52-.88 1.57-1.18 2.09-2.43-.16-4.86-.5-7.3-.16-.1 1.3-.9 3.47.85 4.01 3.36 1.49 8.93 2.59 8.4 7.41.29 4.49-5.12 6.18-8.73 5.27-2.03-.32-6.3-1.23-3.9-4.04 2.6.41 5.11 1.99 7.8 1.16 1.44-.73 1.98-1.9 1.61-3.51-2.38-2.69-6.89-2.28-8.9-5.42-.77-2.15-.9-5.2 1.18-6.68zm16.82-1.09c3.89.02 7.77.02 11.66.03-.13.67-.38 2.02-.51 2.69-2.66.15-5.33.04-7.99.1l-.03 5.09c2.2.51 5.89-1.17 7 1.46-1.24 2.5-4.83.91-7.05 1.41.06 2.03.13 4.07.4 6.08 2.9-.08 5.82-.1 8.73-.06l-.48 2.69c-3.9.21-7.81.02-11.71.08-.08-6.52-.05-13.05-.02-19.57zM140 73c2.41-4.26 8.29-4.42 12.01-1.85-.22.65-.67 1.95-.9 2.6-2.34-.79-5.58-2.63-7.58-.17-2.2 3.22-2.21 7.82-.43 11.23 1.94 2.84 5.66 1.56 7.84-.23.44.61 1.3 1.83 1.74 2.44-2.97 2.42-7.35 3.45-10.66 1.09-4.47-3.45-4.62-10.49-2.02-15.11zm57.57-3.29c3.81.05 7.63-.18 11.44.09l.44 2.6c-2.81.06-5.62.05-8.43 0-.13 1.77-.17 3.54-.07 5.3 2.46.36 7.52-1.6 6.59 2.69-2.16-.02-4.33-.04-6.49-.07-.26 2.07-.29 4.16.05 6.23 2.9-.09 5.79-.11 8.69-.11-.12.69-.35 2.05-.47 2.73-3.91.22-7.83.02-11.75.06-.02-6.51-.02-13.01 0-19.52z" fill="#949493"/></svg>