<?xml version="1.0" encoding="utf-8"?>
<!-- Generator: Adobe Illustrator 18.0.0, SVG Export Plug-In . SVG Version: 6.00 Build 0)  -->
<!DOCTYPE svg PUBLIC "-//W3C//DTD SVG 1.0//EN" "http://www.w3.org/TR/2001/REC-SVG-20010904/DTD/svg10.dtd">
<svg version="1.0" id="Layer_1" xmlns="http://www.w3.org/2000/svg" xmlns:xlink="http://www.w3.org/1999/xlink" x="0px" y="0px"
	 viewBox="0 0 182.8 38" style="enable-background:new 0 0 182.8 38;" xml:space="preserve">
<style type="text/css">
	.st0{fill-rule:evenodd;clip-rule:evenodd;fill:#FFFFFF;}
	.st1{fill:#FFFFFF;}
	.st2{fill:#0A2942;}
	.st3{fill:#FFC315;}
	.st4{fill-rule:evenodd;clip-rule:evenodd;fill:#FFC315;}
	.st5{fill-rule:evenodd;clip-rule:evenodd;fill:#0A2942;}
</style>
<g>
	<g>
		<path class="st5" d="M6.9,31c0.5,0.4,1,0.7,1.4,1c0.5,0.3,1,0.4,1.5,0.4c0.4,0,0.7-0.1,1.1-0.2c0.3-0.1,0.7-0.3,1-0.7
			c0.3-0.3,0.5-0.8,0.7-1.3c0.2-0.5,0.4-1.3,0.5-2.2l1.4-9.9c0.1-0.9,0.2-1.6,0.1-2.2c-0.1-0.5-0.2-1-0.4-1.3
			c-0.2-0.3-0.5-0.6-0.8-0.7c-0.3-0.1-0.7-0.2-1-0.2c-0.6,0-1.1,0.1-1.6,0.4c-0.5,0.3-1.1,0.6-1.7,1L6.9,31L6.9,31z M0.7,36.4
			L5.6,0.7h5.5L9.5,12.1c0.6-0.4,1.1-0.8,1.6-1.2c0.5-0.3,1-0.6,1.4-0.9c0.5-0.2,0.9-0.4,1.4-0.5c0.5-0.1,1-0.2,1.6-0.2
			c1.7,0,3,0.6,3.9,1.9c0.8,1.3,1.1,3.1,0.7,5.5l-1.8,12.8c-0.3,2.4-1.1,4.3-2.3,5.5c-1.2,1.3-2.6,1.9-4.4,1.9
			c-1.4,0-2.5-0.3-3.2-0.8c-0.8-0.5-1.5-1.3-2.3-2.5H6.3l-0.4,2.8H0.7z"/>
	</g>
	<g>
		<path class="st5" d="M39.8,9.8l-3.7,26.6h-5.2l0.4-2.7c-0.7,0.5-1.3,0.9-1.8,1.3c-0.5,0.4-1,0.7-1.6,1c-0.5,0.3-1.1,0.5-1.7,0.6
			c-0.6,0.1-1.3,0.2-2.1,0.2c-1.5,0-2.6-0.5-3.2-1.5c-0.7-1-0.9-2.4-0.6-4.1l3-21.5h5.5l-2.8,20.6c-0.1,0.7,0,1.1,0.3,1.5
			c0.3,0.3,0.8,0.5,1.4,0.5s1.2-0.2,1.8-0.5c0.6-0.3,1.3-0.7,2-1.2l2.9-20.9H39.8z"/>
	</g>
	<g>
		<path class="st5" d="M52.3,15.3c-0.5-0.4-1-0.7-1.4-1c-0.5-0.3-1-0.4-1.5-0.4c-0.8,0-1.4,0.3-2,0.8c-0.6,0.6-1,1.7-1.2,3.5
			l-1.4,9.9c-0.2,1.7-0.1,2.9,0.3,3.5c0.4,0.6,1,0.8,1.8,0.8c0.6,0,1.1-0.1,1.6-0.4c0.5-0.3,1.1-0.6,1.7-1L52.3,15.3L52.3,15.3z
			 M49.7,36.4l0.4-2.8H50c-1.1,1.2-2.1,2-3,2.5c-0.9,0.5-2,0.8-3.4,0.8c-1.7,0-3-0.6-3.9-1.9c-0.8-1.3-1.1-3.1-0.7-5.5l1.8-12.8
			c0.3-2.4,1.1-4.3,2.3-5.5c1.2-1.3,2.6-1.9,4.4-1.9c0.6,0,1.1,0.1,1.6,0.2c0.5,0.1,0.9,0.3,1.3,0.5c0.4,0.2,0.8,0.5,1.2,0.9
			c0.4,0.3,0.8,0.7,1.3,1.2l1.6-11.4h5.5l-4.9,35.7H49.7z"/>
	</g>
	<g>
		<path class="st5" d="M61.4,5.8l0.7-5h5.5l-0.7,5H61.4L61.4,5.8z M57.2,36.4l3.7-26.6h5.5l-3.7,26.6H57.2z"/>
	</g>
	<g>
		<path class="st2" d="M11.9,37.6c-1.5,0-2.7-0.3-3.6-0.9c-0.5-0.4-1-0.8-1.6-1.5l-0.2,1.3c0,0.3-0.3,0.6-0.7,0.6H0.7
			c-0.2,0-0.4-0.1-0.5-0.2C0,36.7,0,36.5,0,36.3L4.9,0.6c0-0.3,0.3-0.6,0.7-0.6h5.5c0.2,0,0.4,0.1,0.5,0.2c0.1,0.1,0.2,0.3,0.2,0.5
			l-1.4,9.8c0.1-0.1,0.3-0.2,0.4-0.3c0.5-0.4,1-0.7,1.5-0.9c0.5-0.3,1-0.5,1.6-0.6c0.5-0.1,1.1-0.2,1.8-0.2c2,0,3.5,0.7,4.4,2.2
			c0.9,1.4,1.2,3.4,0.9,6l-1.8,12.8c-0.4,2.6-1.2,4.6-2.4,5.9C15.4,36.9,13.8,37.6,11.9,37.6z M6.3,33c0.2,0,0.5,0.1,0.7,0.3
			c0.7,1.1,1.4,1.9,2.1,2.3c0.6,0.4,1.6,0.7,2.8,0.7c1.6,0,2.8-0.5,3.9-1.7c1.1-1.1,1.8-2.9,2.1-5.2l1.8-12.8c0.3-2.3,0.1-4-0.6-5.1
			c-0.7-1.1-1.8-1.6-3.3-1.6c-0.5,0-1,0.1-1.5,0.2c-0.4,0.1-0.9,0.3-1.3,0.5c-0.4,0.2-0.9,0.5-1.4,0.8c-0.5,0.3-1,0.7-1.6,1.2
			c-0.2,0.2-0.5,0.2-0.7,0C9,12.5,8.9,12.3,8.9,12l1.5-10.6H6.2L1.4,35.8h3.9l0.3-2.2C5.7,33.2,6,33,6.3,33z M9.9,33
			c-0.7,0-1.3-0.2-1.9-0.5c-0.5-0.3-1-0.6-1.5-1c-0.2-0.1-0.3-0.4-0.2-0.6l2.2-15.7c0-0.2,0.1-0.4,0.3-0.5c0.6-0.4,1.2-0.8,1.8-1
			c1-0.5,2.2-0.6,3.2-0.2c0.5,0.2,0.8,0.5,1.1,0.9c0.3,0.4,0.4,0.9,0.5,1.6c0.1,0.6,0,1.4-0.1,2.3l-1.4,9.9c-0.1,1-0.3,1.7-0.5,2.3
			c-0.2,0.6-0.5,1.1-0.9,1.5c-0.4,0.4-0.8,0.7-1.2,0.9C10.8,33,10.4,33,9.9,33z M7.7,30.7C8,31,8.4,31.2,8.7,31.4
			c0.6,0.3,1.3,0.4,2.1,0.2c0.2-0.1,0.5-0.2,0.7-0.5c0.2-0.3,0.4-0.6,0.6-1.1c0.2-0.5,0.3-1.2,0.5-2l1.4-9.9c0.1-0.8,0.1-1.5,0.1-2
			c0-0.4-0.1-0.8-0.3-1c-0.1-0.2-0.3-0.3-0.4-0.4c-0.6-0.2-1.4-0.2-2.1,0.2c-0.4,0.2-0.9,0.5-1.4,0.8L7.7,30.7z"/>
	</g>
	<g>
		<path class="st2" d="M24.1,37.6c-1.7,0-3-0.6-3.8-1.8c-0.8-1.1-1-2.7-0.8-4.6l3-21.5c0-0.3,0.3-0.6,0.7-0.6h5.5
			c0.2,0,0.4,0.1,0.5,0.2c0.1,0.1,0.2,0.3,0.2,0.5l-2.8,20.6c0,0.3,0,0.7,0.2,0.9c0.4,0.4,1.4,0.4,2.4-0.1c0.5-0.3,1.1-0.6,1.7-1
			l2.8-20.6c0-0.3,0.3-0.6,0.7-0.6h5.5c0.2,0,0.4,0.1,0.5,0.2c0.1,0.1,0.2,0.3,0.2,0.5l-3.7,26.6c0,0.3-0.3,0.6-0.7,0.6h-5.2
			c-0.2,0-0.4-0.1-0.5-0.2c-0.1-0.1-0.2-0.3-0.2-0.5l0.2-1.1c-0.2,0.1-0.3,0.3-0.5,0.4c-0.5,0.4-1.1,0.8-1.7,1.1
			c-0.6,0.3-1.2,0.5-1.9,0.7C25.7,37.5,24.9,37.6,24.1,37.6z M23.7,10.5l-2.9,20.9c-0.2,1.6,0,2.8,0.5,3.6c0.5,0.8,1.4,1.2,2.7,1.2
			c0.7,0,1.4-0.1,2-0.2c0.6-0.1,1.1-0.3,1.6-0.6c0.5-0.2,1-0.6,1.5-0.9c0.5-0.4,1.1-0.8,1.8-1.3c0.2-0.2,0.5-0.2,0.7,0
			c0.2,0.1,0.4,0.4,0.3,0.7l-0.3,1.9h3.9L39,10.5h-4.2L32,30.8c0,0.2-0.1,0.4-0.3,0.5c-0.7,0.5-1.4,0.9-2,1.2
			c-1.5,0.8-3.1,0.8-3.9-0.1c-0.5-0.5-0.7-1.1-0.5-2l2.7-19.9H23.7z"/>
	</g>
	<g>
		<path class="st2" d="M43.6,37.6c-2,0-3.5-0.7-4.4-2.2c-0.9-1.4-1.2-3.4-0.9-6l1.8-12.8c0.4-2.6,1.2-4.6,2.4-5.9
			c1.3-1.4,2.9-2.1,4.9-2.1c0.6,0,1.2,0.1,1.7,0.2c0.5,0.1,1,0.3,1.5,0.6c0.4,0.3,0.9,0.6,1.3,1c0.1,0.1,0.3,0.2,0.4,0.3l1.4-10.2
			c0-0.3,0.3-0.6,0.7-0.6h5.5c0.2,0,0.4,0.1,0.5,0.2c0.1,0.1,0.2,0.3,0.2,0.5l-4.9,35.7c0,0.3-0.3,0.6-0.7,0.6h-5.2
			c-0.2,0-0.4-0.1-0.5-0.2c-0.1-0.1-0.2-0.3-0.2-0.5l0.1-1c-0.6,0.6-1.2,1-1.8,1.4C46.3,37.3,45.1,37.6,43.6,37.6z M47.4,10
			c-1.6,0-2.8,0.5-3.9,1.7c-1.1,1.1-1.8,2.9-2.1,5.2l-1.8,12.8c-0.3,2.3-0.1,4,0.6,5.1c0.7,1.1,1.8,1.6,3.3,1.6
			c1.3,0,2.3-0.2,3.1-0.7c0.8-0.5,1.8-1.3,2.8-2.4c0.3-0.3,0.8-0.3,1,0c0.1,0.1,0.2,0.3,0.2,0.5l-0.3,2h3.9l4.7-34.4h-4.2l-1.5,10.8
			c0,0.2-0.2,0.4-0.4,0.5c-0.2,0.1-0.5,0-0.7-0.1c-0.5-0.4-1-0.8-1.3-1.2c-0.3-0.3-0.7-0.6-1.1-0.8c-0.3-0.2-0.7-0.4-1.1-0.5
			C48.4,10,47.9,10,47.4,10z M46.8,33c-1,0-1.8-0.4-2.3-1.1c-0.6-0.7-0.7-2-0.4-4l1.4-9.9c0.3-1.9,0.7-3.2,1.4-3.8
			c0.7-0.7,1.5-1,2.5-1c0.7,0,1.3,0.2,1.9,0.5c0.5,0.3,1,0.6,1.5,1c0.2,0.1,0.3,0.4,0.2,0.6l-2.2,15.7c0,0.2-0.1,0.4-0.3,0.5
			c-0.6,0.4-1.2,0.8-1.8,1C48.1,32.9,47.4,33,46.8,33z M49.3,14.5c-0.6,0-1.1,0.2-1.6,0.7c-0.3,0.3-0.8,1.1-1,3.1l-1.4,9.9
			c-0.3,2.1,0,2.8,0.2,3c0.3,0.4,0.7,0.6,1.3,0.6c0.5,0,0.9-0.1,1.3-0.3c0.4-0.2,0.9-0.5,1.4-0.8l2.1-15c-0.4-0.3-0.7-0.5-1.1-0.7
			C50.2,14.6,49.8,14.5,49.3,14.5z"/>
	</g>
	<g>
		<path class="st2" d="M62.7,37.1h-5.5c-0.2,0-0.4-0.1-0.5-0.2c-0.1-0.1-0.2-0.3-0.2-0.5l3.7-26.6c0-0.3,0.3-0.6,0.7-0.6h5.5
			c0.2,0,0.4,0.1,0.5,0.2C67,9.5,67.1,9.7,67,9.9l-3.7,26.6C63.3,36.8,63.1,37.1,62.7,37.1z M57.9,35.8h4.2l3.5-25.3h-4.2L57.9,35.8
			z M66.9,6.4h-5.5c-0.2,0-0.4-0.1-0.5-0.2c-0.1-0.1-0.2-0.3-0.2-0.5l0.7-5c0-0.3,0.3-0.6,0.7-0.6h5.5c0.2,0,0.4,0.1,0.5,0.2
			c0.1,0.1,0.2,0.3,0.2,0.5l-0.7,5C67.6,6.2,67.3,6.4,66.9,6.4z M62.2,5.1h4.2l0.5-3.7h-4.2L62.2,5.1z"/>
	</g>
	<g>
		<path class="st2" d="M160.6,38h-2.9c-0.4,0-0.8-0.2-1-0.5c-0.3-0.3-0.4-0.7-0.3-1.1l0.4-3.1c0.1-0.7,0.7-1.2,1.4-1.2h2.9
			c0.4,0,0.8,0.2,1,0.5c0.3,0.3,0.4,0.7,0.3,1.1l-0.4,3.1C161.9,37.5,161.3,38,160.6,38z"/>
	</g>
	<g>
		<path class="st2" d="M171,38h-2.8c-0.4,0-0.8-0.2-1-0.5c-0.3-0.3-0.4-0.7-0.3-1.1l1.4-9.9c0,0,0,0,0,0l-1.4,10.3
			c-0.1,0.7-0.7,1.2-1.4,1.2h-2.8c-0.4,0-0.8-0.2-1-0.5c-0.3-0.3-0.4-0.7-0.3-1.1l2.6-18.7c0.1-0.7,0.7-1.2,1.4-1.2h2.8
			c0.4,0,0.8,0.2,1,0.5c0.3,0.3,0.4,0.7,0.3,1.1l-0.4,3.2c0.1,0,0.2-0.1,0.3-0.1c0.4-0.1,0.9-0.2,1.4-0.2c1.5,0,2.4,0.8,2.8,1.4
			c0.5,0.8,0.7,1.8,0.5,3.1l-1.5,11.2C172.3,37.5,171.7,38,171,38z M169.8,35.3L169.8,35.3l1.4-10.1c0.1-0.8,0-1.1-0.1-1.2
			c0-0.1-0.1-0.2-0.5-0.2c-0.2,0-0.3,0-0.4,0c0.1,0.1,0.2,0.2,0.3,0.3c0.3,0.3,0.7,0.9,0.5,1.9L169.8,35.3z M164.3,35.3L164.3,35.3
			l1.4-9.7c0-0.3,0.2-0.6,0.4-0.8c-0.2-0.3-0.2-0.6-0.2-0.9l0.6-4.5h0L164.3,35.3z"/>
	</g>
	<g>
		<path class="st2" d="M175.9,38h-2.8c-0.4,0-0.8-0.2-1-0.5c-0.3-0.3-0.4-0.7-0.3-1.1l1.9-13.9c0.1-0.7,0.7-1.2,1.4-1.2h2.7
			c0.3,0,0.6,0.1,0.9,0.3c0.8-0.4,1.5-0.6,2.4-0.6h0.6c0.4,0,0.8,0.2,1,0.5c0.3,0.3,0.4,0.7,0.3,1.1l-0.4,3c-0.1,0.4-0.3,0.7-0.6,1
			s-0.7,0.3-1.1,0.2c-0.2-0.1-0.4-0.1-0.7-0.2c-0.1,0-0.3-0.1-0.7-0.1c-0.1,0-0.3,0-0.5,0.2c0,0-0.2,0.1-0.2,0.5l-1.3,9.6
			C177.1,37.5,176.6,38,175.9,38z M174.7,35.3L174.7,35.3l1.2-8.4c0.1-0.7,0.3-1.2,0.6-1.6c0,0,0,0,0,0c-0.1-0.2-0.3-0.4-0.3-0.6
			L174.7,35.3z"/>
	</g>
	<g>
		<polygon class="st0" points="157.7,36.7 158.1,33.6 161.1,33.6 160.6,36.7 		"/>
	</g>
	<g>
		<path class="st0" d="M162.7,36.7l2.6-18.7h2.8l-0.8,6.1c0.3-0.2,0.5-0.4,0.8-0.6c0.3-0.2,0.5-0.4,0.7-0.5c0.2-0.1,0.5-0.2,0.8-0.3
			c0.3-0.1,0.7-0.1,1.1-0.1c0.7,0,1.3,0.3,1.6,0.8c0.3,0.5,0.4,1.2,0.3,2.1L171,36.7h-2.8l1.5-10.8c0-0.3,0-0.6-0.2-0.8
			c-0.2-0.2-0.4-0.2-0.7-0.2c-0.3,0-0.6,0.1-0.9,0.3c-0.3,0.2-0.6,0.4-1,0.6l-1.5,10.9H162.7z"/>
	</g>
	<g>
		<path class="st0" d="M173.1,36.7l1.9-13.9h2.7l-0.2,1.6h0c0.4-0.6,0.9-1.1,1.5-1.4c0.6-0.3,1.2-0.5,1.9-0.5h0.6l-0.4,3
			c-0.2-0.1-0.5-0.1-0.7-0.2c-0.3-0.1-0.6-0.1-1-0.1c-0.5,0-0.9,0.2-1.4,0.5c-0.4,0.3-0.7,0.8-0.8,1.4l-1.3,9.6H173.1z"/>
	</g>
	<g>
		<path class="st3" d="M74,37.6c-1.7,0-3.1-0.3-4.2-0.8c-1.1-0.5-2-1.3-2.7-2.3c-0.6-1-1-2.1-1.2-3.4c-0.1-1.3-0.1-2.7,0.1-4.2
			l1.1-7.8c0.2-1.5,0.6-2.9,1-4.2c0.5-1.3,1.2-2.4,2.1-3.4c0.9-0.9,1.9-1.7,3.2-2.2c1.2-0.5,2.7-0.8,4.4-0.8c1.7,0,3.1,0.3,4.2,0.8
			c1.1,0.5,2,1.3,2.7,2.3c0.6,1,1,2.1,1.2,3.4c0.1,1.3,0.1,2.7-0.1,4.2l-1.1,7.8c-0.2,1.5-0.6,2.9-1,4.2c-0.5,1.3-1.2,2.4-2.1,3.4
			c-0.9,0.9-1.9,1.7-3.2,2.2C77.2,37.3,75.7,37.6,74,37.6z M77.9,9.9c-1.5,0-2.8,0.2-3.9,0.7c-1.1,0.4-2,1.1-2.7,1.9
			c-0.8,0.8-1.4,1.8-1.8,2.9c-0.4,1.2-0.8,2.5-1,3.9l-1.1,7.8c-0.2,1.4-0.2,2.7-0.1,3.9c0.1,1.1,0.4,2.1,0.9,2.9
			c0.5,0.8,1.2,1.4,2.1,1.8c0.9,0.4,2.2,0.7,3.6,0.7c1.5,0,2.8-0.2,3.9-0.7c1.1-0.4,2-1.1,2.7-1.9c0.8-0.8,1.4-1.8,1.8-2.9
			c0.4-1.2,0.8-2.5,1-3.9l1.1-7.8c0.2-1.4,0.2-2.7,0.1-3.9c-0.1-1.1-0.4-2.1-0.9-2.9c-0.5-0.8-1.2-1.4-2.1-1.8
			C80.6,10.2,79.3,9.9,77.9,9.9z M74.7,33c-1.5,0-2.3-0.7-2.7-1.3c-0.5-0.8-0.7-2.1-0.4-3.8l1.3-9.8c0.2-1.7,0.7-2.9,1.4-3.7
			c0.7-0.8,1.7-1.2,2.9-1.2c1.2,0,2.1,0.4,2.7,1.3c0.5,0.8,0.7,2.1,0.4,3.8L79,28.1c-0.2,1.7-0.7,2.9-1.4,3.7
			C76.8,32.6,75.9,33,74.7,33z M77.2,14.5c-0.8,0-1.4,0.3-1.9,0.8c-0.5,0.6-0.9,1.6-1.1,3l-1.3,9.8c-0.2,1.7,0,2.5,0.2,2.9
			c0.2,0.3,0.6,0.7,1.6,0.7c0.8,0,1.4-0.3,1.9-0.8c0.5-0.6,0.9-1.6,1.1-3l1.4-9.8c0.2-1.7,0-2.5-0.2-2.9
			C78.6,14.9,78.2,14.5,77.2,14.5z"/>
	</g>
	<g>
		<path class="st3" d="M102.5,37.1h-6.9l2.9-21.4c0-0.3,0-0.7-0.2-0.9c-0.4-0.4-1.5-0.4-2.4,0.1c-0.5,0.3-1.1,0.6-1.7,1l-2.9,21.2
			h-6.9l3.9-28h6.6L94.7,11c0.2-0.1,0.3-0.3,0.5-0.4c0.5-0.4,1.1-0.8,1.7-1.1C97.4,9.2,98,9,98.7,8.9c0.7-0.2,1.4-0.2,2.3-0.2
			c1.7,0,3,0.6,3.8,1.8c0.8,1.1,1,2.7,0.8,4.6L102.5,37.1z M97.1,35.8h4.2l2.9-21c0.2-1.6,0-2.8-0.5-3.6c-0.5-0.8-1.4-1.2-2.7-1.2
			c-0.7,0-1.4,0.1-2,0.2c-0.6,0.1-1.1,0.3-1.6,0.6c-0.5,0.2-1,0.6-1.5,0.9c-0.5,0.4-1.1,0.8-1.8,1.3l-1.3,1l0.5-3.5h-3.9L86,35.8
			h4.2l2.8-20.6l0.3-0.2c0.7-0.5,1.4-0.9,2-1.2c1.5-0.8,3.1-0.8,4,0.1c0.5,0.5,0.7,1.1,0.5,2L97.1,35.8z"/>
	</g>
	<g>
		<path class="st3" d="M110.9,37.1H104L109.1,0h6.9L110.9,37.1z M105.5,35.8h4.2l4.7-34.4h-4.2L105.5,35.8z"/>
	</g>
	<g>
		<path class="st3" d="M119.3,37.1h-6.9l3.9-28h6.9L119.3,37.1z M114,35.8h4.2l3.5-25.3h-4.2L114,35.8z M123.6,6.4h-6.9l0.9-6.4h6.9
			L123.6,6.4z M118.2,5.1h4.2l0.5-3.7h-4.2L118.2,5.1z"/>
	</g>
	<g>
		<path class="st3" d="M138.8,37.1h-6.9l2.9-21.4c0-0.3,0-0.7-0.2-0.9c-0.4-0.4-1.4-0.4-2.4,0.1c-0.5,0.3-1.1,0.6-1.7,1l-2.9,21.2
			h-6.9l3.9-28h6.6L131,11c0.2-0.1,0.3-0.3,0.5-0.4c0.5-0.4,1.1-0.8,1.7-1.1c0.6-0.3,1.2-0.5,1.9-0.7c0.7-0.2,1.4-0.2,2.3-0.2
			c1.7,0,3,0.6,3.8,1.8c0.8,1.1,1,2.7,0.8,4.6L138.8,37.1z M133.5,35.8h4.2l2.9-21c0.2-1.6,0-2.8-0.5-3.6c-0.5-0.8-1.4-1.2-2.7-1.2
			c-0.7,0-1.4,0.1-2,0.2c-0.6,0.1-1.1,0.3-1.6,0.6c-0.5,0.2-1,0.6-1.5,0.9c-0.5,0.4-1.1,0.8-1.8,1.3l-1.3,0.9l0.5-3.5h-3.9
			l-3.5,25.3h4.2l2.8-20.6l0.3-0.2c0.7-0.5,1.4-0.9,2-1.2c1.5-0.8,3.1-0.8,4,0.1c0.5,0.5,0.7,1.1,0.5,2L133.5,35.8z"/>
	</g>
	<g>
		<path class="st3" d="M149.3,37.6c-1.7,0-3.1-0.3-4.2-0.8c-1.1-0.5-2-1.3-2.7-2.3c-0.6-1-1-2.1-1.2-3.4c-0.1-1.3-0.1-2.7,0.1-4.2
			l1.1-7.8c0.2-1.5,0.6-2.9,1-4.2c0.5-1.3,1.2-2.4,2.1-3.4c0.9-0.9,1.9-1.7,3.2-2.2c1.2-0.5,2.7-0.8,4.4-0.8c1.7,0,3.1,0.3,4.2,0.8
			c1.1,0.5,2,1.3,2.7,2.3c0.6,1,1,2.1,1.2,3.4c0.1,1.3,0.1,2.7-0.1,4.2l-0.8,5.5h-11.7l-0.5,3.3c-0.2,1.7,0,2.5,0.2,2.9
			c0.2,0.3,0.6,0.7,1.6,0.7c0.8,0,1.4-0.3,1.9-0.8c0.5-0.6,0.9-1.6,1.1-3l0.2-1.2h6.9l-0.1,0.8c-0.2,1.5-0.6,2.8-1.1,4
			c-0.5,1.2-1.2,2.3-2.1,3.2c-0.9,0.9-1.9,1.6-3.1,2.1C152.4,37.3,150.9,37.6,149.3,37.6z M153.1,9.9c-1.5,0-2.8,0.2-3.9,0.7
			c-1.1,0.4-2,1.1-2.7,1.9c-0.8,0.8-1.4,1.8-1.8,2.9c-0.4,1.2-0.8,2.5-1,3.9l-1.1,7.8c-0.2,1.4-0.2,2.7-0.1,3.9
			c0.1,1.1,0.4,2.1,0.9,2.9c0.5,0.8,1.2,1.4,2.1,1.8c0.9,0.4,2.2,0.7,3.6,0.7c1.5,0,2.7-0.2,3.8-0.6c1-0.4,2-1,2.7-1.8
			c0.7-0.8,1.3-1.7,1.8-2.8c0.4-0.9,0.7-1.9,0.9-3l-4.2,0c-0.2,1.7-0.7,2.9-1.4,3.7c-0.7,0.8-1.7,1.2-2.9,1.2
			c-1.5,0-2.3-0.7-2.7-1.3c-0.5-0.8-0.7-2.1-0.4-3.8l0.6-4.4h11.7l0.6-4.4c0.2-1.4,0.2-2.7,0.1-3.9c-0.1-1.1-0.4-2.1-0.9-2.9
			c-0.5-0.8-1.2-1.4-2.1-1.8C155.8,10.2,154.6,9.9,153.1,9.9z M155.3,20.2h-7.5l0.3-2.1c0.2-1.7,0.7-2.9,1.4-3.7
			c0.7-0.8,1.7-1.2,2.9-1.2c1.2,0,2.1,0.4,2.7,1.3c0.5,0.8,0.7,2.1,0.4,3.8L155.3,20.2z M149.4,18.9h4.8l0.1-0.8
			c0.2-1.7,0-2.5-0.2-2.9c-0.2-0.3-0.6-0.7-1.6-0.7c-0.8,0-1.4,0.3-1.9,0.8c-0.5,0.6-0.9,1.6-1.1,3L149.4,18.9z"/>
	</g>
	<g>
		<path class="st4" d="M79.7,18.2c0.2-1.6,0.1-2.7-0.3-3.3c-0.4-0.7-1.1-1-2.1-1s-1.8,0.3-2.4,1c-0.6,0.7-1,1.8-1.3,3.3L72.2,28
			c-0.2,1.6-0.1,2.7,0.3,3.3c0.4,0.7,1.1,1,2.1,1s1.8-0.3,2.4-1c0.6-0.7,1-1.8,1.3-3.3L79.7,18.2L79.7,18.2z M67.9,19.2
			c0.2-1.5,0.5-2.8,1-4c0.5-1.2,1.1-2.3,1.9-3.1c0.8-0.9,1.8-1.6,3-2s2.5-0.7,4.1-0.7c1.6,0,2.9,0.2,3.9,0.7c1,0.5,1.8,1.2,2.4,2
			c0.6,0.9,0.9,1.9,1.1,3.1c0.1,1.2,0.1,2.6-0.1,4L84,27c-0.2,1.5-0.5,2.8-1,4c-0.5,1.2-1.1,2.3-1.9,3.1c-0.8,0.9-1.8,1.6-3,2
			c-1.2,0.5-2.5,0.7-4.1,0.7c-1.6,0-2.9-0.2-3.9-0.7c-1-0.5-1.8-1.2-2.4-2c-0.6-0.9-0.9-1.9-1.1-3.1c-0.1-1.2-0.1-2.6,0.1-4
			L67.9,19.2z"/>
	</g>
	<g>
		<path class="st4" d="M85.2,36.4l3.7-26.7h5.3l-0.4,2.7c0.7-0.5,1.3-0.9,1.8-1.3c0.5-0.4,1-0.7,1.6-1c0.5-0.3,1.1-0.5,1.7-0.6
			c0.6-0.1,1.3-0.2,2.1-0.2c1.5,0,2.6,0.5,3.2,1.5c0.7,1,0.9,2.4,0.6,4.1l-3,21.5h-5.5l2.8-20.7c0.1-0.7,0-1.1-0.3-1.5
			c-0.3-0.3-0.8-0.5-1.4-0.5s-1.2,0.2-1.8,0.5c-0.6,0.3-1.3,0.7-2,1.2l-2.9,20.9H85.2z"/>
	</g>
	<g>
		<polygon class="st4" points="104.7,36.4 109.7,0.7 115.2,0.7 110.3,36.4 		"/>
	</g>
	<g>
		<path class="st4" d="M117.4,5.7l0.7-5.1h5.5L123,5.7H117.4L117.4,5.7z M113.2,36.4l3.7-26.7h5.5l-3.7,26.7H113.2z"/>
	</g>
	<g>
		<path class="st4" d="M121.6,36.4l3.7-26.7h5.3l-0.4,2.7c0.7-0.5,1.3-0.9,1.8-1.3c0.5-0.4,1-0.7,1.6-1c0.5-0.3,1.1-0.5,1.7-0.6
			c0.6-0.1,1.3-0.2,2.1-0.2c1.5,0,2.6,0.5,3.2,1.5c0.7,1,0.9,2.4,0.6,4.1l-3,21.5h-5.5l2.8-20.7c0.1-0.7,0-1.1-0.3-1.5
			c-0.3-0.3-0.8-0.5-1.4-0.5s-1.2,0.2-1.8,0.5c-0.6,0.3-1.3,0.7-2,1.2l-2.9,20.9H121.6z"/>
	</g>
	<g>
		<path class="st4" d="M154.8,19.6l0.2-1.4c0.2-1.6,0.1-2.7-0.3-3.3c-0.4-0.7-1.1-1-2.1-1c-1,0-1.8,0.3-2.4,1
			c-0.6,0.7-1,1.8-1.3,3.3l-0.2,1.4H154.8L154.8,19.6z M159.7,24.1H148l-0.5,3.9c-0.2,1.6-0.1,2.7,0.3,3.3c0.4,0.7,1.1,1,2.1,1
			c1,0,1.8-0.3,2.4-1c0.6-0.7,1-1.8,1.3-3.3l0.1-0.6h5.5c-0.2,1.4-0.6,2.7-1.1,3.9c-0.5,1.2-1.1,2.2-1.9,3c-0.8,0.8-1.8,1.5-2.9,2
			c-1.1,0.5-2.5,0.7-4,0.7c-1.6,0-2.9-0.2-3.9-0.7c-1-0.5-1.8-1.2-2.4-2c-0.6-0.9-0.9-1.9-1.1-3.1s-0.1-2.6,0.1-4l1.1-7.8
			c0.2-1.5,0.5-2.8,1-4c0.5-1.2,1.1-2.3,1.9-3.1c0.8-0.9,1.8-1.6,3-2s2.5-0.7,4.1-0.7S156,9.5,157,10c1,0.5,1.8,1.2,2.4,2
			c0.6,0.9,0.9,1.9,1.1,3.1c0.1,1.2,0.1,2.6-0.1,4L159.7,24.1z"/>
	</g>
</g>
</svg>
