<?xml version="1.0" encoding="utf-8"?>
<!-- Generator: Adobe Illustrator 18.0.0, SVG Export Plug-In . SVG Version: 6.00 Build 0)  -->
<!DOCTYPE svg PUBLIC "-//W3C//DTD SVG 1.0//EN" "http://www.w3.org/TR/2001/REC-SVG-20010904/DTD/svg10.dtd">
<svg version="1.0" id="Layer_1" xmlns="http://www.w3.org/2000/svg" xmlns:xlink="http://www.w3.org/1999/xlink" x="0px" y="0px"
	 viewBox="0 0 182.8 38" style="enable-background:new 0 0 182.8 38;" xml:space="preserve">
<style type="text/css">
	.st0{fill-rule:evenodd;clip-rule:evenodd;fill:#FFFFFF;}
	.st1{fill:#FFFFFF;}
	.st2{fill:#0A2942;}
	.st3{fill:#FFC315;}
	.st4{fill-rule:evenodd;clip-rule:evenodd;fill:#FFC315;}
	.st5{fill-rule:evenodd;clip-rule:evenodd;fill:#0A2942;}
</style>
<g>
	<g>
		<path class="st0" d="M7.3,31.1c0.5,0.4,1,0.7,1.4,1c0.5,0.3,1,0.4,1.5,0.4c0.4,0,0.7-0.1,1.1-0.2c0.3-0.1,0.7-0.3,1-0.7
			c0.3-0.3,0.5-0.8,0.7-1.3c0.2-0.5,0.4-1.3,0.5-2.2l1.4-9.9c0.1-0.9,0.2-1.6,0.1-2.2c-0.1-0.5-0.2-1-0.4-1.3
			c-0.2-0.3-0.5-0.6-0.8-0.7c-0.3-0.1-0.7-0.2-1-0.2c-0.6,0-1.1,0.1-1.6,0.4c-0.5,0.3-1.1,0.6-1.7,1L7.3,31.1L7.3,31.1z M1,36.5
			L5.9,0.8h5.5L9.9,12.2c0.6-0.4,1.1-0.8,1.6-1.2c0.5-0.3,1-0.6,1.4-0.9c0.5-0.2,0.9-0.4,1.4-0.5c0.5-0.1,1-0.2,1.6-0.2
			c1.7,0,3,0.6,3.9,1.9c0.8,1.3,1.1,3.1,0.7,5.5l-1.8,12.8c-0.3,2.4-1.1,4.3-2.3,5.5C15.4,36.4,14,37,12.2,37
			c-1.4,0-2.5-0.3-3.2-0.8c-0.8-0.5-1.5-1.3-2.3-2.5H6.7l-0.4,2.8H1z"/>
	</g>
	<g>
		<path class="st0" d="M40.1,9.9l-3.7,26.6h-5.2l0.4-2.7c-0.7,0.5-1.3,0.9-1.8,1.3c-0.5,0.4-1,0.7-1.6,1c-0.5,0.3-1.1,0.5-1.7,0.6
			c-0.6,0.1-1.3,0.2-2.1,0.2c-1.5,0-2.6-0.5-3.2-1.5c-0.7-1-0.9-2.4-0.6-4.1l3-21.5h5.5l-2.8,20.6c-0.1,0.7,0,1.1,0.3,1.5
			c0.3,0.3,0.8,0.5,1.4,0.5s1.2-0.2,1.8-0.5c0.6-0.3,1.3-0.7,2-1.2l2.9-20.9H40.1z"/>
	</g>
	<g>
		<path class="st0" d="M52.7,15.3c-0.5-0.4-1-0.7-1.4-1c-0.5-0.3-1-0.4-1.5-0.4c-0.8,0-1.4,0.3-2,0.8c-0.6,0.6-1,1.7-1.2,3.5
			l-1.4,9.9c-0.2,1.7-0.1,2.9,0.3,3.5c0.4,0.6,1,0.8,1.8,0.8c0.6,0,1.1-0.1,1.6-0.4c0.5-0.3,1.1-0.6,1.7-1L52.7,15.3L52.7,15.3z
			 M50,36.5l0.4-2.8h-0.1c-1.1,1.2-2.1,2-3,2.5c-0.9,0.5-2,0.8-3.4,0.8c-1.7,0-3-0.6-3.9-1.9c-0.8-1.3-1.1-3.1-0.7-5.5l1.8-12.8
			c0.3-2.4,1.1-4.3,2.3-5.5c1.2-1.3,2.6-1.9,4.4-1.9c0.6,0,1.1,0.1,1.6,0.2c0.5,0.1,0.9,0.3,1.3,0.5c0.4,0.2,0.8,0.5,1.2,0.9
			c0.4,0.3,0.8,0.7,1.3,1.2l1.6-11.4h5.5l-4.9,35.7H50z"/>
	</g>
	<g>
		<path class="st0" d="M61.8,5.8l0.7-5H68l-0.7,5H61.8L61.8,5.8z M57.6,36.5l3.7-26.6h5.5l-3.7,26.6H57.6z"/>
	</g>
	<g>
		<path class="st1" d="M12.2,37.7c-1.5,0-2.7-0.3-3.6-0.9c-0.5-0.4-1-0.8-1.6-1.5l-0.2,1.3c0,0.3-0.3,0.6-0.7,0.6H1
			c-0.2,0-0.4-0.1-0.5-0.2c-0.1-0.1-0.2-0.3-0.2-0.5L5.3,0.7c0-0.3,0.3-0.6,0.7-0.6h5.5c0.2,0,0.4,0.1,0.5,0.2
			c0.1,0.1,0.2,0.3,0.2,0.5l-1.4,9.8c0.1-0.1,0.3-0.2,0.4-0.3c0.5-0.4,1-0.7,1.5-0.9c0.5-0.3,1-0.5,1.6-0.6c0.5-0.1,1.1-0.2,1.8-0.2
			c2,0,3.5,0.7,4.4,2.2c0.9,1.4,1.2,3.4,0.9,6l-1.8,12.8c-0.4,2.6-1.2,4.6-2.4,5.9C15.8,37,14.2,37.7,12.2,37.7z M6.7,33.1
			c0.2,0,0.5,0.1,0.7,0.3c0.7,1.1,1.4,1.9,2.1,2.3c0.6,0.4,1.6,0.7,2.8,0.7c1.6,0,2.8-0.5,3.9-1.7c1.1-1.1,1.8-2.9,2.1-5.2L20,16.7
			c0.3-2.3,0.1-4-0.6-5.1c-0.7-1.1-1.8-1.6-3.3-1.6c-0.5,0-1,0.1-1.5,0.2c-0.4,0.1-0.9,0.3-1.3,0.5c-0.4,0.2-0.9,0.5-1.4,0.8
			c-0.5,0.3-1,0.7-1.6,1.2c-0.2,0.2-0.5,0.2-0.7,0c-0.2-0.1-0.4-0.4-0.3-0.7l1.5-10.6H6.5L1.8,35.8h3.9L6,33.6
			C6,33.3,6.3,33.1,6.7,33.1z M10.3,33.1c-0.7,0-1.3-0.2-1.9-0.5c-0.5-0.3-1-0.6-1.5-1c-0.2-0.1-0.3-0.4-0.2-0.6l2.2-15.7
			c0-0.2,0.1-0.4,0.3-0.5c0.6-0.4,1.2-0.8,1.8-1c1-0.5,2.2-0.6,3.2-0.2c0.5,0.2,0.8,0.5,1.1,0.9c0.3,0.4,0.4,0.9,0.5,1.6
			c0.1,0.6,0,1.4-0.1,2.3l-1.4,9.9c-0.1,1-0.3,1.7-0.5,2.3c-0.2,0.6-0.5,1.1-0.9,1.5c-0.4,0.4-0.8,0.7-1.2,0.9
			C11.2,33,10.7,33.1,10.3,33.1z M8,30.8c0.4,0.3,0.7,0.5,1.1,0.7c0.6,0.3,1.3,0.4,2.1,0.2c0.2-0.1,0.5-0.2,0.7-0.5
			c0.2-0.3,0.4-0.6,0.6-1.1c0.2-0.5,0.3-1.2,0.5-2l1.4-9.9c0.1-0.8,0.1-1.5,0.1-2c0-0.4-0.1-0.8-0.3-1c-0.1-0.2-0.3-0.3-0.4-0.4
			c-0.6-0.2-1.4-0.2-2.1,0.2c-0.4,0.2-0.9,0.5-1.4,0.8L8,30.8z"/>
	</g>
	<g>
		<path class="st1" d="M24.4,37.7c-1.7,0-3-0.6-3.8-1.8c-0.8-1.1-1-2.7-0.8-4.6l3-21.5c0-0.3,0.3-0.6,0.7-0.6h5.5
			c0.2,0,0.4,0.1,0.5,0.2c0.1,0.1,0.2,0.3,0.2,0.5l-2.8,20.6c0,0.3,0,0.7,0.2,0.9c0.4,0.4,1.4,0.4,2.4-0.1c0.5-0.3,1.1-0.6,1.7-1
			l2.8-20.6c0-0.3,0.3-0.6,0.7-0.6h5.5c0.2,0,0.4,0.1,0.5,0.2c0.1,0.1,0.2,0.3,0.2,0.5l-3.7,26.6c0,0.3-0.3,0.6-0.7,0.6h-5.2
			c-0.2,0-0.4-0.1-0.5-0.2c-0.1-0.1-0.2-0.3-0.2-0.5l0.2-1.1c-0.2,0.1-0.3,0.3-0.5,0.4c-0.5,0.4-1.1,0.8-1.7,1.1
			c-0.6,0.3-1.2,0.5-1.9,0.7C26,37.6,25.3,37.7,24.4,37.7z M24.1,10.6l-2.9,20.9c-0.2,1.6,0,2.8,0.5,3.6c0.5,0.8,1.4,1.2,2.7,1.2
			c0.7,0,1.4-0.1,2-0.2c0.6-0.1,1.1-0.3,1.6-0.6c0.5-0.2,1-0.6,1.5-0.9c0.5-0.4,1.1-0.8,1.8-1.3c0.2-0.2,0.5-0.2,0.7,0
			c0.2,0.1,0.4,0.4,0.3,0.7L32,35.8h3.9l3.5-25.3h-4.2l-2.8,20.3c0,0.2-0.1,0.4-0.3,0.5c-0.7,0.5-1.4,0.9-2,1.2
			c-1.5,0.8-3.1,0.8-3.9-0.1c-0.5-0.5-0.7-1.1-0.5-2l2.7-19.9H24.1z"/>
	</g>
	<g>
		<path class="st1" d="M43.9,37.7c-2,0-3.5-0.7-4.4-2.2c-0.9-1.4-1.2-3.4-0.9-6l1.8-12.8c0.4-2.6,1.2-4.6,2.4-5.9
			c1.3-1.4,2.9-2.1,4.9-2.1c0.6,0,1.2,0.1,1.7,0.2c0.5,0.1,1,0.3,1.5,0.6c0.4,0.3,0.9,0.6,1.3,1c0.1,0.1,0.3,0.2,0.4,0.3L54,0.7
			c0-0.3,0.3-0.6,0.7-0.6h5.5c0.2,0,0.4,0.1,0.5,0.2c0.1,0.1,0.2,0.3,0.2,0.5l-4.9,35.7c0,0.3-0.3,0.6-0.7,0.6H50
			c-0.2,0-0.4-0.1-0.5-0.2c-0.1-0.1-0.2-0.3-0.2-0.5l0.1-1c-0.6,0.6-1.2,1-1.8,1.4C46.7,37.4,45.4,37.7,43.9,37.7z M47.7,10.1
			c-1.6,0-2.8,0.5-3.9,1.7c-1.1,1.1-1.8,2.9-2.1,5.2L40,29.7c-0.3,2.3-0.1,4,0.6,5.1c0.7,1.1,1.8,1.6,3.3,1.6c1.3,0,2.3-0.2,3.1-0.7
			c0.8-0.5,1.8-1.3,2.8-2.4c0.3-0.3,0.8-0.3,1,0c0.1,0.1,0.2,0.3,0.2,0.5l-0.3,2h3.9l4.7-34.4h-4.2l-1.5,10.8c0,0.2-0.2,0.4-0.4,0.5
			c-0.2,0.1-0.5,0-0.7-0.1c-0.5-0.4-1-0.8-1.3-1.2c-0.3-0.3-0.7-0.6-1.1-0.8c-0.3-0.2-0.7-0.4-1.1-0.5
			C48.8,10.1,48.3,10.1,47.7,10.1z M47.1,33.1c-1,0-1.8-0.4-2.3-1.1c-0.6-0.7-0.7-2-0.4-4l1.4-9.9c0.3-1.9,0.7-3.2,1.4-3.8
			c0.7-0.7,1.5-1,2.5-1c0.7,0,1.3,0.2,1.9,0.5c0.5,0.3,1,0.6,1.5,1c0.2,0.1,0.3,0.4,0.2,0.6l-2.2,15.7c0,0.2-0.1,0.4-0.3,0.5
			c-0.6,0.4-1.2,0.8-1.8,1C48.5,33,47.8,33.1,47.1,33.1z M49.7,14.6c-0.6,0-1.1,0.2-1.6,0.7c-0.3,0.3-0.8,1.1-1,3.1l-1.4,9.9
			c-0.3,2.1,0,2.8,0.2,3c0.3,0.4,0.7,0.6,1.3,0.6c0.5,0,0.9-0.1,1.3-0.3c0.4-0.2,0.9-0.5,1.4-0.8l2.1-15c-0.4-0.3-0.7-0.5-1.1-0.7
			C50.5,14.7,50.1,14.6,49.7,14.6z"/>
	</g>
	<g>
		<path class="st1" d="M63.1,37.2h-5.5c-0.2,0-0.4-0.1-0.5-0.2c-0.1-0.1-0.2-0.3-0.2-0.5l3.7-26.6c0-0.3,0.3-0.6,0.7-0.6h5.5
			c0.2,0,0.4,0.1,0.5,0.2c0.1,0.1,0.2,0.3,0.2,0.5l-3.7,26.6C63.7,36.9,63.4,37.2,63.1,37.2z M58.3,35.8h4.2L66,10.6h-4.2L58.3,35.8
			z M67.3,6.5h-5.5c-0.2,0-0.4-0.1-0.5-0.2c-0.1-0.1-0.2-0.3-0.2-0.5l0.7-5c0-0.3,0.3-0.6,0.7-0.6H68c0.2,0,0.4,0.1,0.5,0.2
			c0.1,0.1,0.2,0.3,0.2,0.5l-0.7,5C67.9,6.3,67.6,6.5,67.3,6.5z M62.5,5.2h4.2l0.5-3.7H63L62.5,5.2z"/>
	</g>
	<g>
		<path class="st2" d="M161,38.1h-2.9c-0.4,0-0.8-0.2-1-0.5c-0.3-0.3-0.4-0.7-0.3-1.1l0.4-3.1c0.1-0.7,0.7-1.2,1.4-1.2h2.9
			c0.4,0,0.8,0.2,1,0.5c0.3,0.3,0.4,0.7,0.3,1.1l-0.4,3.1C162.3,37.6,161.7,38.1,161,38.1z"/>
	</g>
	<g>
		<path class="st2" d="M171.4,38.1h-2.8c-0.4,0-0.8-0.2-1-0.5c-0.3-0.3-0.4-0.7-0.3-1.1l1.4-9.9c0,0,0,0,0,0l-1.4,10.3
			c-0.1,0.7-0.7,1.2-1.4,1.2H163c-0.4,0-0.8-0.2-1-0.5c-0.3-0.3-0.4-0.7-0.3-1.1l2.6-18.7c0.1-0.7,0.7-1.2,1.4-1.2h2.8
			c0.4,0,0.8,0.2,1,0.5c0.3,0.3,0.4,0.7,0.3,1.1l-0.4,3.2c0.1,0,0.2-0.1,0.3-0.1c0.4-0.1,0.9-0.2,1.4-0.2c1.5,0,2.4,0.8,2.8,1.4
			c0.5,0.8,0.7,1.8,0.5,3.1l-1.5,11.2C172.6,37.6,172.1,38.1,171.4,38.1z M170.2,35.4L170.2,35.4l1.4-10.1c0.1-0.8,0-1.1-0.1-1.2
			c0-0.1-0.1-0.2-0.5-0.2c-0.2,0-0.3,0-0.4,0c0.1,0.1,0.2,0.2,0.3,0.3c0.3,0.3,0.7,0.9,0.5,1.9L170.2,35.4z M164.6,35.4L164.6,35.4
			l1.4-9.7c0-0.3,0.2-0.6,0.4-0.8c-0.2-0.3-0.2-0.6-0.2-0.9l0.6-4.5h0L164.6,35.4z"/>
	</g>
	<g>
		<path class="st2" d="M176.2,38.1h-2.8c-0.4,0-0.8-0.2-1-0.5c-0.3-0.3-0.4-0.7-0.3-1.1l1.9-13.9c0.1-0.7,0.7-1.2,1.4-1.2h2.7
			c0.3,0,0.6,0.1,0.9,0.3c0.8-0.4,1.5-0.6,2.4-0.6h0.6c0.4,0,0.8,0.2,1,0.5c0.3,0.3,0.4,0.7,0.3,1.1l-0.4,3c-0.1,0.4-0.3,0.7-0.6,1
			s-0.7,0.3-1.1,0.2c-0.2-0.1-0.4-0.1-0.7-0.2c-0.1,0-0.3-0.1-0.7-0.1c-0.1,0-0.3,0-0.5,0.2c0,0-0.2,0.1-0.2,0.5l-1.3,9.6
			C177.5,37.6,176.9,38.1,176.2,38.1z M175,35.4L175,35.4l1.2-8.4c0.1-0.7,0.3-1.2,0.6-1.6c0,0,0,0,0,0c-0.1-0.2-0.3-0.4-0.3-0.6
			L175,35.4z"/>
	</g>
	<g>
		<polygon class="st0" points="158.1,36.7 158.5,33.7 161.4,33.7 161,36.7 		"/>
	</g>
	<g>
		<path class="st0" d="M163.1,36.7l2.6-18.7h2.8l-0.8,6.1c0.3-0.2,0.5-0.4,0.8-0.6c0.3-0.2,0.5-0.4,0.7-0.5c0.2-0.1,0.5-0.2,0.8-0.3
			c0.3-0.1,0.7-0.1,1.1-0.1c0.7,0,1.3,0.3,1.6,0.8c0.3,0.5,0.4,1.2,0.3,2.1l-1.5,11.2h-2.8l1.5-10.8c0-0.3,0-0.6-0.2-0.8
			c-0.2-0.2-0.4-0.2-0.7-0.2c-0.3,0-0.6,0.1-0.9,0.3c-0.3,0.2-0.6,0.4-1,0.6l-1.5,10.9H163.1z"/>
	</g>
	<g>
		<path class="st0" d="M173.5,36.7l1.9-13.9h2.7l-0.2,1.6h0c0.4-0.6,0.9-1.1,1.5-1.4c0.6-0.3,1.2-0.5,1.9-0.5h0.6l-0.4,3
			c-0.2-0.1-0.5-0.1-0.7-0.2c-0.3-0.1-0.6-0.1-1-0.1c-0.5,0-0.9,0.2-1.4,0.5c-0.4,0.3-0.7,0.8-0.8,1.4l-1.3,9.6H173.5z"/>
	</g>
	<g>
		<path class="st3" d="M74.4,37.7c-1.7,0-3.1-0.3-4.2-0.8c-1.1-0.5-2-1.3-2.7-2.3c-0.6-1-1-2.1-1.2-3.4c-0.1-1.3-0.1-2.7,0.1-4.2
			l1.1-7.8c0.2-1.5,0.6-2.9,1-4.2c0.5-1.3,1.2-2.4,2.1-3.4c0.9-0.9,1.9-1.7,3.2-2.2c1.2-0.5,2.7-0.8,4.4-0.8c1.7,0,3.1,0.3,4.2,0.8
			c1.1,0.5,2,1.3,2.7,2.3c0.6,1,1,2.1,1.2,3.4c0.1,1.3,0.1,2.7-0.1,4.2l-1.1,7.8c-0.2,1.5-0.6,2.9-1,4.2c-0.5,1.3-1.2,2.4-2.1,3.4
			c-0.9,0.9-1.9,1.7-3.2,2.2C77.5,37.4,76.1,37.7,74.4,37.7z M78.2,10c-1.5,0-2.8,0.2-3.9,0.7c-1.1,0.4-2,1.1-2.7,1.9
			c-0.8,0.8-1.4,1.8-1.8,2.9c-0.4,1.2-0.8,2.5-1,3.9l-1.1,7.8c-0.2,1.4-0.2,2.7-0.1,3.9c0.1,1.1,0.4,2.1,0.9,2.9
			c0.5,0.8,1.2,1.4,2.1,1.8c0.9,0.4,2.2,0.7,3.6,0.7c1.5,0,2.8-0.2,3.9-0.7c1.1-0.4,2-1.1,2.7-1.9c0.8-0.8,1.4-1.8,1.8-2.9
			c0.4-1.2,0.8-2.5,1-3.9l1.1-7.8c0.2-1.4,0.2-2.7,0.1-3.9c-0.1-1.1-0.4-2.1-0.9-2.9c-0.5-0.8-1.2-1.4-2.1-1.8
			C80.9,10.2,79.7,10,78.2,10z M75,33.1c-1.5,0-2.3-0.7-2.7-1.3c-0.5-0.8-0.7-2.1-0.4-3.8l1.3-9.8c0.2-1.7,0.7-2.9,1.4-3.7
			c0.7-0.8,1.7-1.2,2.9-1.2c1.2,0,2.1,0.4,2.7,1.3c0.5,0.8,0.7,2.1,0.4,3.8l-1.4,9.8c-0.2,1.7-0.7,2.9-1.4,3.7
			C77.2,32.7,76.2,33.1,75,33.1z M77.6,14.6c-0.8,0-1.4,0.3-1.9,0.8c-0.5,0.6-0.9,1.6-1.1,3l-1.3,9.8c-0.2,1.7,0,2.5,0.2,2.9
			c0.2,0.3,0.6,0.7,1.6,0.7c0.8,0,1.4-0.3,1.9-0.8c0.5-0.6,0.9-1.6,1.1-3l1.4-9.8c0.2-1.7,0-2.5-0.2-2.9C79,15,78.6,14.6,77.6,14.6z
			"/>
	</g>
	<g>
		<path class="st3" d="M102.8,37.2H96l2.9-21.4c0-0.3,0-0.7-0.2-0.9c-0.4-0.4-1.5-0.4-2.4,0.1c-0.5,0.3-1.1,0.6-1.7,1l-2.9,21.2
			h-6.9l3.9-28h6.6L95,11c0.2-0.1,0.3-0.3,0.5-0.4c0.5-0.4,1.1-0.8,1.7-1.1c0.6-0.3,1.2-0.5,1.9-0.7c0.7-0.2,1.4-0.2,2.3-0.2
			c1.7,0,3,0.6,3.8,1.8c0.8,1.1,1,2.7,0.8,4.6L102.8,37.2z M97.5,35.8h4.2l2.9-21c0.2-1.6,0-2.8-0.5-3.6c-0.5-0.8-1.4-1.2-2.7-1.2
			c-0.7,0-1.4,0.1-2,0.2c-0.6,0.1-1.1,0.3-1.6,0.6c-0.5,0.2-1,0.6-1.5,0.9c-0.5,0.4-1.1,0.8-1.8,1.3l-1.3,1l0.5-3.5h-3.9l-3.5,25.3
			h4.2l2.8-20.6l0.3-0.2c0.7-0.5,1.4-0.9,2-1.2c1.5-0.8,3.1-0.8,4,0.1c0.5,0.5,0.7,1.1,0.5,2L97.5,35.8z"/>
	</g>
	<g>
		<path class="st3" d="M111.2,37.2h-6.9l5.1-37.1h6.9L111.2,37.2z M105.9,35.8h4.2l4.7-34.4h-4.2L105.9,35.8z"/>
	</g>
	<g>
		<path class="st3" d="M119.7,37.2h-6.9l3.9-28h6.9L119.7,37.2z M114.3,35.8h4.2l3.5-25.3h-4.2L114.3,35.8z M123.9,6.4H117l0.9-6.4
			h6.9L123.9,6.4z M118.6,5.1h4.2l0.5-3.7h-4.2L118.6,5.1z"/>
	</g>
	<g>
		<path class="st3" d="M139.2,37.2h-6.9l2.9-21.4c0-0.3,0-0.7-0.2-0.9c-0.4-0.4-1.4-0.4-2.4,0.1c-0.5,0.3-1.1,0.6-1.7,1l-2.9,21.2
			h-6.9l3.9-28h6.6l-0.3,1.9c0.2-0.1,0.3-0.3,0.5-0.4c0.5-0.4,1.1-0.8,1.7-1.1c0.6-0.3,1.2-0.5,1.9-0.7c0.7-0.2,1.4-0.2,2.3-0.2
			c1.7,0,3,0.6,3.8,1.8c0.8,1.1,1,2.7,0.8,4.6L139.2,37.2z M133.8,35.8h4.2l2.9-21c0.2-1.6,0-2.8-0.5-3.6c-0.5-0.8-1.4-1.2-2.7-1.2
			c-0.7,0-1.4,0.1-2,0.2c-0.6,0.1-1.1,0.3-1.6,0.6c-0.5,0.2-1,0.6-1.5,0.9c-0.5,0.4-1.1,0.8-1.8,1.3l-1.3,0.9l0.5-3.5h-3.9
			l-3.5,25.3h4.2l2.8-20.6L130,15c0.7-0.5,1.4-0.9,2-1.2c1.5-0.8,3.1-0.8,4,0.1c0.5,0.5,0.7,1.1,0.5,2L133.8,35.8z"/>
	</g>
	<g>
		<path class="st3" d="M149.7,37.7c-1.7,0-3.1-0.3-4.2-0.8c-1.1-0.5-2-1.3-2.7-2.3c-0.6-1-1-2.1-1.2-3.4c-0.1-1.3-0.1-2.7,0.1-4.2
			l1.1-7.8c0.2-1.5,0.6-2.9,1-4.2c0.5-1.3,1.2-2.4,2.1-3.4c0.9-0.9,1.9-1.7,3.2-2.2c1.2-0.5,2.7-0.8,4.4-0.8c1.7,0,3.1,0.3,4.2,0.8
			c1.1,0.5,2,1.3,2.7,2.3c0.6,1,1,2.1,1.2,3.4c0.1,1.3,0.1,2.7-0.1,4.2l-0.8,5.5h-11.7l-0.5,3.3c-0.2,1.7,0,2.5,0.2,2.9
			c0.2,0.3,0.6,0.7,1.6,0.7c0.8,0,1.4-0.3,1.9-0.8c0.5-0.6,0.9-1.6,1.1-3l0.2-1.2h6.9l-0.1,0.8c-0.2,1.5-0.6,2.8-1.1,4
			c-0.5,1.2-1.2,2.3-2.1,3.2c-0.9,0.9-1.9,1.6-3.1,2.1C152.7,37.4,151.3,37.7,149.7,37.7z M153.5,10c-1.5,0-2.8,0.2-3.9,0.7
			c-1.1,0.4-2,1.1-2.7,1.9c-0.8,0.8-1.4,1.8-1.8,2.9c-0.4,1.2-0.8,2.5-1,3.9l-1.1,7.8c-0.2,1.4-0.2,2.7-0.1,3.9
			c0.1,1.1,0.4,2.1,0.9,2.9c0.5,0.8,1.2,1.4,2.1,1.8c0.9,0.4,2.2,0.7,3.6,0.7c1.5,0,2.7-0.2,3.8-0.6c1-0.4,2-1,2.7-1.8
			c0.7-0.8,1.3-1.7,1.8-2.8c0.4-0.9,0.7-1.9,0.9-3l-4.2,0c-0.2,1.7-0.7,2.9-1.4,3.7c-0.7,0.8-1.7,1.2-2.9,1.2
			c-1.5,0-2.3-0.7-2.7-1.3c-0.5-0.8-0.7-2.1-0.4-3.8l0.6-4.4h11.7l0.6-4.4c0.2-1.4,0.2-2.7,0.1-3.9c-0.1-1.1-0.4-2.1-0.9-2.9
			c-0.5-0.8-1.2-1.4-2.1-1.8C156.2,10.2,155,10,153.5,10z M155.7,20.3h-7.5l0.3-2.1c0.2-1.7,0.7-2.9,1.4-3.7
			c0.7-0.8,1.7-1.2,2.9-1.2c1.2,0,2.1,0.4,2.7,1.3c0.5,0.8,0.7,2.1,0.4,3.8L155.7,20.3z M149.8,19h4.8l0.1-0.8
			c0.2-1.7,0-2.5-0.2-2.9c-0.2-0.3-0.6-0.7-1.6-0.7c-0.8,0-1.4,0.3-1.9,0.8c-0.5,0.6-0.9,1.6-1.1,3L149.8,19z"/>
	</g>
	<g>
		<path class="st4" d="M80.1,18.3c0.2-1.6,0.1-2.7-0.3-3.3c-0.4-0.7-1.1-1-2.1-1s-1.8,0.3-2.4,1c-0.6,0.7-1,1.8-1.3,3.3l-1.4,9.8
			c-0.2,1.6-0.1,2.7,0.3,3.3c0.4,0.7,1.1,1,2.1,1s1.8-0.3,2.4-1c0.6-0.7,1-1.8,1.3-3.3L80.1,18.3L80.1,18.3z M68.2,19.3
			c0.2-1.5,0.5-2.8,1-4c0.5-1.2,1.1-2.3,1.9-3.1c0.8-0.9,1.8-1.6,3-2s2.5-0.7,4.1-0.7c1.6,0,2.9,0.2,3.9,0.7c1,0.5,1.8,1.2,2.4,2
			c0.6,0.9,0.9,1.9,1.1,3.1c0.1,1.2,0.1,2.6-0.1,4l-1.1,7.8c-0.2,1.5-0.5,2.8-1,4c-0.5,1.2-1.1,2.3-1.9,3.1c-0.8,0.9-1.8,1.6-3,2
			C77.4,36.8,76,37,74.4,37c-1.6,0-2.9-0.2-3.9-0.7c-1-0.5-1.8-1.2-2.4-2c-0.6-0.9-0.9-1.9-1.1-3.1c-0.1-1.2-0.1-2.6,0.1-4
			L68.2,19.3z"/>
	</g>
	<g>
		<path class="st4" d="M85.6,36.5l3.7-26.7h5.3l-0.4,2.7c0.7-0.5,1.3-0.9,1.8-1.3c0.5-0.4,1-0.7,1.6-1c0.5-0.3,1.1-0.5,1.7-0.6
			c0.6-0.1,1.3-0.2,2.1-0.2c1.5,0,2.6,0.5,3.2,1.5c0.7,1,0.9,2.4,0.6,4.1l-3,21.5h-5.5l2.8-20.7c0.1-0.7,0-1.1-0.3-1.5
			c-0.3-0.3-0.8-0.5-1.4-0.5s-1.2,0.2-1.8,0.5c-0.6,0.3-1.3,0.7-2,1.2l-2.9,20.9H85.6z"/>
	</g>
	<g>
		<polygon class="st4" points="105.1,36.5 110,0.7 115.6,0.7 110.7,36.5 		"/>
	</g>
	<g>
		<path class="st4" d="M117.8,5.8l0.7-5.1h5.5l-0.7,5.1H117.8L117.8,5.8z M113.6,36.5l3.7-26.7h5.5l-3.7,26.7H113.6z"/>
	</g>
	<g>
		<path class="st4" d="M122,36.5l3.7-26.7h5.3l-0.4,2.7c0.7-0.5,1.3-0.9,1.8-1.3c0.5-0.4,1-0.7,1.6-1c0.5-0.3,1.1-0.5,1.7-0.6
			c0.6-0.1,1.3-0.2,2.1-0.2c1.5,0,2.6,0.5,3.2,1.5c0.7,1,0.9,2.4,0.6,4.1l-3,21.5h-5.5l2.8-20.7c0.1-0.7,0-1.1-0.3-1.5
			c-0.3-0.3-0.8-0.5-1.4-0.5c-0.6,0-1.2,0.2-1.8,0.5c-0.6,0.3-1.3,0.7-2,1.2l-2.9,20.9H122z"/>
	</g>
	<g>
		<path class="st4" d="M155.1,19.7l0.2-1.4c0.2-1.6,0.1-2.7-0.3-3.3c-0.4-0.7-1.1-1-2.1-1c-1,0-1.8,0.3-2.4,1
			c-0.6,0.7-1,1.8-1.3,3.3l-0.2,1.4H155.1L155.1,19.7z M160.1,24.2h-11.7l-0.5,3.9c-0.2,1.6-0.1,2.7,0.3,3.3c0.4,0.7,1.1,1,2.1,1
			c1,0,1.8-0.3,2.4-1c0.6-0.7,1-1.8,1.3-3.3l0.1-0.6h5.5c-0.2,1.4-0.6,2.7-1.1,3.9c-0.5,1.2-1.1,2.2-1.9,3c-0.8,0.8-1.8,1.5-2.9,2
			c-1.1,0.5-2.5,0.7-4,0.7c-1.6,0-2.9-0.2-3.9-0.7c-1-0.5-1.8-1.2-2.4-2c-0.6-0.9-0.9-1.9-1.1-3.1c-0.1-1.2-0.1-2.6,0.1-4l1.1-7.8
			c0.2-1.5,0.5-2.8,1-4c0.5-1.2,1.1-2.3,1.9-3.1c0.8-0.9,1.8-1.6,3-2s2.5-0.7,4.1-0.7s2.9,0.2,3.9,0.7c1,0.5,1.8,1.2,2.4,2
			c0.6,0.9,0.9,1.9,1.1,3.1c0.1,1.2,0.1,2.6-0.1,4L160.1,24.2z"/>
	</g>
</g>
</svg>
